PathFileType	4	(X/Y/Z)	Kaydara																																																																																																																									
DataRate	CameraRate	NumFrames	NumMarkers	Units	OrigDataRate	OrigDataStartFrame	OrigNumFrames																																																																																																																					
30	30	6	41	mm	30	24	180																																																																																																																					
Frame#	Time	SALE_LFHD			SALE_RFHD			SALE_LBHD			SALE_RBHD			SALE_LFTShould			SALE_RFTShould			SALE_LRRShould			SALE_RRRShould			SALE_T10			SALE_STRN			SALE_TRUN			SALE_LSHO			SALE_LUPA			SALE_LELB			SALE_LFRM			SALE_LWRA			SALE_LWRB			SALE_LFIN			SALE_RSHO			SALE_RUPA			SALE_RELB			SALE_RFRM			SALE_RWRB			SALE_RFIN			SALE_LFWT			SALE_RFWT			SALE_LBWT			SALE_RBWT			SALE_LTHI			SALE_LKNE			SALE_RWRA			SALE_LSHN			SALE_LANK			SALE_LHEE			SALE_LTOE			SALE_RTHI			SALE_RKNE			SALE_RSHN			SALE_RANK			SALE_RHEE			SALE_RTOE		
		X1	Y1	Z1	X2	Y2	Z2	X3	Y3	Z3	X4	Y4	Z4	X5	Y5	Z5	X6	Y6	Z6	X7	Y7	Z7	X8	Y8	Z8	X9	Y9	Z9	X10	Y10	Z10	X11	Y11	Z11	X12	Y12	Z12	X13	Y13	Z13	X14	Y14	Z14	X15	Y15	Z15	X16	Y16	Z16	X17	Y17	Z17	X18	Y18	Z18	X19	Y19	Z19	X20	Y20	Z20	X21	Y21	Z21	X22	Y22	Z22	X23	Y23	Z23	X24	Y24	Z24	X25	Y25	Z25	X26	Y26	Z26	X27	Y27	Z27	X28	Y28	Z28	X29	Y29	Z29	X30	Y30	Z30	X31	Y31	Z31	X32	Y32	Z32	X33	Y33	Z33	X34	Y34	Z34	X35	Y35	Z35	X36	Y36	Z36	X37	Y37	Z37	X38	Y38	Z38	X39	Y39	Z39	X40	Y40	Z40	X41	Y41	Z41
																																																																																																																												
23	0.783	219.33462	1651.77475	-2010.21957	88.15499	1644.12552	-2016.66489	222.34308	1641.14746	-2145.46799	95.66731	1632.146	-2144.17847	240.7506	1391.54343	-2062.25876	98.72519	1388.65585	-2062.0813	233.44	1446.61804	-2176.3942	82.54621	1450.34912	-2168.97263	157.3044	1293.1221	-2238.81882	165.15585	1319.7612	-2012.5087	162.91319	1234.46045	-1969.73694	355.04513	1415.10178	-2131.09512	395.93018	1196.55579	-2132.49405	382.05269	1086.78284	-2146.23581	405.6422	984.03755	-2102.40616	334.62448	854.58862	-2031.75781	404.11678	842.38869	-2061.88675	394.97234	804.98756	-2009.8671	-10.1202	1416.78528	-2124.2395	-40.9686	1184.7982	-2181.78131	-66.93105	1085.24223	-2134.87839	-57.60921	972.46254	-2141.2059	-78.44264	838.25325	-2089.20364	-84.58716	799.94057	-2033.65128	292.03671	976.66847	-2021.7894	12.85026	974.28253	-2041.22421	244.42459	1043.24226	-2191.69815	67.46671	1047.18513	-2203.64059	296.47299	677.43073	-2191.42761	282.82049	505.17506	-2117.75223	-31.53423	851.6423	-2034.28299	279.57087	309.03954	-2119.59747	274.94965	125.00135	-2169.33655	234.96212	75.82344	-2231.3765	249.6446	87.1314	-2034.38034	11.29103	723.60489	-2197.9039	29.20706	564.25682	-2093.67874	81.85669	376.19946	-2107.21329	38.08785	122.97323	-2157.13593	48.24964	79.26877	-2035.87997	83.94822	62.41567	-2226.3118
24	0.817	219.42139	1651.85318	-2010.19424	88.29707	1644.12109	-2016.44104	222.20701	1641.04248	-2145.40192	95.5378	1632.05475	-2143.97858	240.32171	1391.3382	-2061.76178	98.65771	1388.56354	-2061.80466	233.28741	1446.61865	-2176.16409	82.42824	1450.38177	-2168.57834	157.1141	1293.18008	-2238.61572	165.18703	1319.60388	-2012.379	162.94529	1234.31023	-1969.62479	354.96735	1415.22537	-2131.38519	395.78949	1196.48483	-2132.82639	381.79062	1086.7099	-2146.61407	405.47871	983.94745	-2103.04535	334.54105	854.37653	-2032.55035	403.97564	842.2123	-2062.73819	394.90566	804.73335	-2010.81757	-10.19829	1416.75049	-2123.77884	-41.19167	1184.82536	-2181.3768	-67.0939	1085.21996	-2134.36783	-57.80438	972.55913	-2140.85464	-78.41913	838.19511	-2088.60947	-84.502	799.9604	-2033.08258	292.01729	976.66389	-2021.64856	12.73825	974.15497	-2041.11404	244.31314	1043.28499	-2191.58066	67.34803	1047.17728	-2203.43491	296.36208	677.41241	-2191.33102	282.88782	505.20855	-2117.39639	-31.45086	851.60194	-2033.88443	279.50304	309.05474	-2119.55826	274.92266	124.98294	-2169.34875	234.92617	75.86251	-2231.37177	249.64422	87.12636	-2034.37881	11.20678	723.58879	-2197.78046	29.17844	564.26586	-2093.564	81.87021	376.23116	-2107.16934	38.07222	122.95048	-2157.1283	48.25301	79.26104	-2035.86838	83.9394	62.43443	-2226.32568
25	0.85	219.49001	1651.86752	-2010.07996	88.35871	1644.16306	-2016.09253	222.15624	1640.93781	-2145.21851	95.48743	1632.00592	-2143.70148	240.38357	1391.04141	-2061.71509	98.67248	1388.48404	-2061.44531	233.16172	1446.59882	-2175.9903	82.33839	1450.41519	-2168.18649	156.89024	1293.23212	-2238.38669	165.31002	1319.50134	-2012.23969	163.08397	1234.19266	-1969.47891	354.87812	1415.13519	-2131.3176	395.72121	1196.41647	-2133.21243	381.61835	1086.65504	-2147.13348	405.35099	983.81332	-2103.83865	334.51611	854.09241	-2033.51807	403.86833	841.94962	-2063.82111	394.86267	804.36356	-2011.9873	-10.26262	1416.75629	-2123.31131	-41.3027	1184.78966	-2180.86227	-67.18001	1085.19203	-2133.89694	-57.89413	972.51663	-2140.31342	-78.3189	838.1546	-2087.98828	-84.37687	799.99863	-2032.42737	292.03003	976.70105	-2021.58234	12.69965	974.189	-2040.96039	244.13885	1043.28964	-2191.45676	67.23854	1047.19376	-2203.2663	296.29959	677.4662	-2191.23932	282.7038	505.18272	-2117.57416	-31.38237	851.64726	-2033.51501	279.52005	309.05859	-2119.53568	274.91541	125.0276	-2169.2717	234.88886	75.87396	-2231.37177	249.63242	87.10476	-2034.37088	11.14928	723.59276	-2197.603	29.14757	564.25312	-2093.4761	81.8445	376.16859	-2107.10129	38.07991	122.98758	-2157.15164	48.26217	79.24829	-2035.89798	83.94942	62.44058	-2226.33545
26	0.883	219.72305	1651.84341	-2009.8822	88.41537	1644.15085	-2015.79391	222.16211	1640.89035	-2144.98383	95.49923	1631.95831	-2143.36792	240.44123	1390.81665	-2061.61652	98.76425	1388.43643	-2061.1261	233.10532	1446.59637	-2175.83786	82.23874	1450.41641	-2167.79221	156.69487	1293.2515	-2238.15491	165.37828	1319.38644	-2012.03064	163.33887	1234.07082	-1969.39957	354.8711	1414.93164	-2131.15494	395.55725	1196.2915	-2133.62808	381.4922	1086.2709	-2147.48169	405.25196	983.63525	-2104.72046	334.55372	853.67104	-2034.68231	403.86593	841.66649	-2065.09384	394.94896	803.91853	-2013.34152	-10.28195	1416.745	-2122.76077	-41.48273	1184.83093	-2180.46783	-67.26771	1085.16693	-2133.41064	-58.02382	972.52357	-2139.84222	-78.24834	838.13751	-2087.49756	-84.23107	800.02914	-2031.88354	292.03022	976.66969	-2021.49078	12.46132	974.21013	-2040.48965	243.99508	1043.30391	-2191.33636	67.12032	1047.21535	-2203.04489	296.19324	677.4366	-2191.1615	282.70121	505.17502	-2117.52716	-31.16438	851.62758	-2032.96509	279.44424	309.1378	-2119.43222	274.89998	125.00767	-2169.37698	234.91615	75.79205	-2231.3414	249.64352	87.12217	-2034.38202	11.09528	723.5614	-2197.47543	29.08346	564.20456	-2093.36685	81.8203	376.1729	-2107.06848	38.07951	122.97895	-2157.16721	48.24852	79.26041	-2035.87692	83.9426	62.41081	-2226.30905
27	0.917	219.75708	1651.73721	-2009.54865	88.48261	1644.09119	-2015.45105	222.19532	1640.78735	-2144.67514	95.56813	1631.88736	-2143.00308	240.57266	1390.7135	-2061.6333	98.80036	1388.38898	-2060.87097	233.01994	1446.57837	-2175.65125	82.20631	1450.42191	-2167.38541	156.46279	1293.26691	-2237.93488	165.4781	1319.23462	-2011.84906	163.48827	1233.89893	-1969.30603	354.86862	1414.85611	-2131.26785	395.45319	1196.18378	-2134.06158	381.24287	1086.2558	-2148.06305	405.21954	983.48732	-2105.65567	334.74655	853.42857	-2035.77332	403.88004	841.34697	-2066.41815	395.15568	803.44986	-2014.82346	-10.26459	1416.76193	-2122.28256	-41.72811	1184.92485	-2180.0708	-67.33891	1085.25826	-2132.91382	-58.1161	972.47925	-2139.38812	-78.15753	838.09723	-2087.04239	-84.10196	800.01152	-2031.44943	291.97227	976.65497	-2021.28387	12.65371	974.12903	-2040.57526	243.85799	1043.29018	-2191.18362	67.01108	1047.22137	-2202.79572	296.14151	677.4633	-2191.10931	283.36241	506.21986	-2115.26947	-31.0192	851.68816	-2032.63718	279.47546	309.0729	-2119.48639	274.90036	125.01964	-2169.26743	234.88861	75.8609	-2231.36124	249.64703	87.12015	-2034.37698	10.98113	723.59154	-2197.31369	29.04603	564.18602	-2093.25241	81.77379	376.13941	-2107.04468	38.04551	122.94469	-2157.12463	48.25872	79.24984	-2035.87524	83.93987	62.4264	-2226.30386
28	0.95	220.03876	1651.69586	-2009.2244	88.51594	1644.01367	-2015.11276	222.28041	1640.79559	-2144.38278	95.64695	1631.87561	-2142.55447	240.54916	1390.54153	-2061.48148	99.00888	1388.27774	-2060.53268	232.99047	1446.56937	-2175.52948	82.1718	1450.43243	-2167.08786	156.27802	1293.31589	-2237.74216	165.67442	1319.15741	-2011.75735	163.73434	1233.71483	-1969.15375	354.83902	1414.78043	-2131.47095	395.37605	1196.02707	-2134.52423	381.00658	1086.35437	-2148.79395	405.20096	983.30673	-2106.60568	334.87225	852.94662	-2036.98151	403.98067	841.08284	-2067.77374	395.33543	802.99553	-2016.24146	-10.26015	1416.81854	-2121.79733	-41.75818	1184.88792	-2179.5134	-67.42625	1085.27992	-2132.4231	-58.25659	972.63161	-2139.03442	-78.14218	838.04855	-2086.61453	-84.01338	800.01045	-2031.05408	291.95597	976.64558	-2021.30188	12.59798	974.08897	-2040.32654	243.73947	1043.28514	-2191.04523	66.864	1047.23129	-2202.55859	296.03571	677.47116	-2191.06201	282.59119	505.12787	-2117.78687	-30.91688	851.68938	-2032.37869	279.43722	309.01154	-2119.49173	274.90192	125.04175	-2169.34647	234.94099	75.77184	-2231.32401	249.64502	87.1319	-2034.38217	10.85915	723.5862	-2197.09381	29.01241	564.18846	-2093.12714	81.79155	376.16726	-2106.96625	38.02866	122.94369	-2157.10449	48.26969	79.25667	-2035.88852	83.93126	62.44615	-2226.32721
